<?xml version="1.0" encoding="utf-8"?>
<!-- Generator: Adobe Illustrator 24.3.0, SVG Export Plug-In . SVG Version: 6.00 Build 0)  -->
<svg version="1.1" id="Layer_1" xmlns="http://www.w3.org/2000/svg" xmlns:xlink="http://www.w3.org/1999/xlink" x="0px" y="0px"
	 viewBox="0 0 210.2 30.6" style="enable-background:new 0 0 210.2 30.6;" xml:space="preserve">
<style type="text/css">
	.st0{enable-background:new    ;}
	.st1{fill:#FFFFFF;}
	.st2{font-family:'Arial-BoldMT';}
	.st3{font-size:24px;}
	.st4{fill:#E91C24;}
</style>
<text transform="matrix(1 0 0 1 85.696 23.709)" class="st0"><tspan x="0" y="0" class="st1 st2 st3">thinksol</tspan><tspan x="92" y="0" class="st4 st2 st3">v</tspan><tspan x="105.4" y="0" class="st1 st2 st3">.</tspan></text>
<g>
	<path class="st4" d="M62.9,15.1C62.9,15.1,63,15.1,62.9,15.1c0.5,0,0.8,0,1.2,0c0.1,0,0.1,0,0.1,0.1c0.1,0.7,0.1,1.5-0.3,2.2
		c-0.3,0.5-0.7,0.9-1.2,1.1c-0.3,0.1-0.5,0.1-0.8,0c-0.3-0.1-0.6-0.1-0.9,0c-0.5,0.1-1,0.7-1,1.3c0,0.6,0.4,1.1,0.9,1.3
		c0.1,0,0.3,0.1,0.4,0.1c0.2,0,0.4,0.1,0.6,0.3c0.1,0.1,0.1,0.1,0.1,0.2c0.7,1.1,1.7,2,2.9,2.4c0.8,0.3,1.6,0.4,2.4,0.3
		c2.4-0.2,4.3-1.9,4.9-4.3c0.1-0.6,0.2-1.2,0.1-1.8c-0.1-0.5-0.2-1-0.3-1.4c-0.4-1-0.7-2-1.1-3c0-0.1-0.1-0.2-0.1-0.3
		c0-0.3,0.2-0.6,0.5-0.7c0.3-0.1,0.5,0.1,0.6,0.4c0.3,0.8,0.6,1.6,0.9,2.4c0.2,0.7,0.4,1.3,0.6,2c0.3,1.4,0.1,2.7-0.5,4
		c-0.8,1.6-1.9,2.8-3.6,3.4c-0.5,0.2-1.1,0.3-1.7,0.4c-0.4,0-0.8,0.1-1.1,0.1c-1.6,0-2.9-0.6-4.1-1.6c-0.5-0.4-0.9-0.9-1.2-1.3
		c-0.1-0.2-0.3-0.3-0.5-0.4c-0.7-0.2-1.2-0.6-1.6-1.2c-0.8-1.3-0.2-3.3,1.6-3.8c0.4-0.1,0.8-0.1,1.3,0c0.2,0,0.4,0,0.5-0.1
		c0.4-0.3,0.6-0.8,0.5-1.3c0-0.2-0.1-0.3-0.1-0.5C62.9,15.2,62.9,15.2,62.9,15.1z"/>
	<path class="st4" d="M55.6,16.9c-0.5,0-1,0-1.6,0c-0.2,0-0.3,0-0.4-0.1c-0.4-0.1-0.5-0.4-0.5-0.7c0-0.4,0.2-0.6,0.6-0.7
		c0.1,0,0.2,0,0.3,0c1.1,0,2.3,0,3.4,0c0.2,0,0.3,0,0.4,0.1c0.3,0.2,0.4,0.4,0.4,0.7c0,0.3-0.2,0.5-0.4,0.6
		c-0.2,0.1-0.3,0.1-0.5,0.1C56.7,16.9,56.1,16.9,55.6,16.9L55.6,16.9z"/>
	<path class="st4" d="M78.6,15.4c0.5,0,1.1,0,1.7,0c0.1,0,0.2,0,0.3,0c0.5,0.1,0.6,0.5,0.6,0.9c-0.1,0.3-0.3,0.5-0.7,0.6
		c-0.3,0-0.6,0-0.9,0c-0.9,0-1.7,0-2.6,0c-0.2,0-0.4,0-0.5-0.1c-0.3-0.1-0.4-0.3-0.4-0.6c0-0.3,0.1-0.5,0.4-0.7
		c0.2-0.1,0.3-0.1,0.5-0.1C77.5,15.4,78,15.4,78.6,15.4z"/>
	<path class="st4" d="M60.3,10c-0.2,0-0.4-0.1-0.6-0.2c-0.1-0.1-0.2-0.2-0.4-0.3C58.7,8.7,58,8,57.3,7.3c-0.1-0.1-0.2-0.2-0.3-0.4
		c-0.1-0.3-0.1-0.6,0.2-0.8c0.2-0.2,0.5-0.3,0.8-0.2c0.1,0,0.3,0.1,0.4,0.2c0.2,0.2,0.4,0.4,0.6,0.6C59.5,7.4,60,8,60.6,8.5
		c0.1,0.1,0.2,0.2,0.3,0.4c0.2,0.4,0,0.9-0.5,1.1C60.4,10,60.3,10,60.3,10z"/>
	<path class="st4" d="M77.3,6.7c0,0.2-0.1,0.4-0.2,0.5c-0.1,0.1-0.2,0.2-0.3,0.3c-0.7,0.7-1.4,1.4-2.1,2.1c-0.1,0.1-0.2,0.2-0.4,0.3
		c-0.6,0.3-1-0.2-1.1-0.6c0-0.2,0-0.3,0.1-0.4c0.1-0.1,0.1-0.2,0.2-0.3c0.8-0.8,1.6-1.6,2.3-2.3c0.1-0.1,0.2-0.2,0.3-0.3
		C76.8,5.8,77.3,6.3,77.3,6.7z"/>
	<path class="st4" d="M67.8,4.6c0,0.6,0,1.1,0,1.7c0,0.2,0,0.3-0.1,0.4C67.6,7,67.3,7.1,67,7.1c-0.3,0-0.5-0.2-0.6-0.4
		c-0.1-0.2-0.1-0.3-0.1-0.5c0-1.1,0-2.1,0-3.1c0-0.1,0-0.3,0-0.4C66.4,2.2,66.7,2,67.1,2c0.4,0,0.7,0.3,0.7,0.7c0,0.3,0,0.7,0,1
		C67.8,4,67.8,4.3,67.8,4.6z"/>
	<path class="st4" d="M68.1,22.3c-0.5,0-1-0.1-1.5-0.3c-0.2-0.1-0.4-0.2-0.6-0.4c-0.1-0.1-0.2-0.2-0.2-0.3c-0.1-0.2-0.1-0.4,0.1-0.6
		c0.2-0.2,0.4-0.3,0.6-0.2c0.1,0,0.2,0.1,0.3,0.2c0.4,0.3,0.9,0.5,1.4,0.4c0.2,0,0.5-0.1,0.7-0.1c0.2,0,0.3,0,0.5,0
		c0.2,0.1,0.4,0.2,0.4,0.5c0,0.2-0.1,0.4-0.3,0.6c-0.1,0-0.2,0.1-0.2,0.1c-0.3,0.1-0.6,0.1-1,0.2C68.2,22.3,68.2,22.3,68.1,22.3z"/>
	<path class="st4" d="M70.4,16.3c0,0.3-0.2,0.5-0.4,0.6c-0.3,0.1-0.5,0-0.7-0.2c0,0-0.1-0.1-0.1-0.1c-0.1-0.3-0.3-0.6-0.3-0.9
		c0-0.1,0-0.2,0-0.3c0.1-0.3,0.2-0.4,0.5-0.5c0,0,0.1,0,0.1,0c0.1,0,0.1,0,0.2,0.1c0.2,0.2,0.4,0.4,0.5,0.6c0.1,0.2,0.2,0.5,0.2,0.7
		C70.4,16.2,70.4,16.3,70.4,16.3z"/>
	<path class="st4" d="M67,15.6c0.2,0,0.3,0.1,0.4,0.3c0.1,0.1,0.1,0.3,0.2,0.4c0.1,0.3,0.2,0.6,0.3,0.9c0,0.1,0,0.1,0,0.1
		c-0.1,0.1-0.2,0.2-0.2,0.3c-0.1,0.1-0.1,0.1-0.2,0.2c-0.3,0.1-0.5,0.1-0.7-0.2c-0.2-0.4-0.4-0.8-0.4-1.2c0-0.1,0-0.2,0-0.2
		c0.1-0.2,0.2-0.3,0.3-0.4C66.8,15.7,66.9,15.7,67,15.6z"/>
</g>
</svg>
