<?xml version="1.0" encoding="utf-8"?>
<!-- Generator: Adobe Illustrator 24.3.0, SVG Export Plug-In . SVG Version: 6.00 Build 0)  -->
<svg version="1.1" id="Layer_1" xmlns="http://www.w3.org/2000/svg" xmlns:xlink="http://www.w3.org/1999/xlink" x="0px" y="0px"
	 viewBox="0 0 210.2 30.6" style="enable-background:new 0 0 210.2 30.6;" xml:space="preserve">
<style type="text/css">
	.st0{enable-background:new    ;}
	.st1{fill:#2E2E2E;}
	.st2{font-family:'Arial-BoldMT';}
	.st3{font-size:24px;}
	.st4{fill:#E91C24;}
</style>
<g>
	<text transform="matrix(1 0 0 1 85.696 23.709)" class="st0"><tspan x="0" y="0" class="st1 st2 st3">thinksol</tspan><tspan x="92" y="0" class="st4 st2 st3">v</tspan><tspan x="105.4" y="0" class="st1 st2 st3">.</tspan></text>
	<g>
		<path class="st4" d="M63,15.2C63,15.2,63,15.2,63,15.2c0.5,0,0.8,0,1.2,0c0.1,0,0.1,0,0.1,0.1c0.1,0.8,0.1,1.5-0.3,2.2
			c-0.3,0.5-0.7,0.9-1.2,1.1c-0.3,0.1-0.5,0.1-0.8,0c-0.3-0.1-0.6-0.1-0.9,0c-0.5,0.1-1,0.7-1,1.3c0,0.6,0.4,1.1,0.9,1.3
			c0.1,0,0.3,0.1,0.4,0.1c0.2,0,0.4,0.1,0.6,0.3c0.1,0.1,0.1,0.1,0.1,0.2c0.7,1.1,1.7,2,2.9,2.4c0.8,0.3,1.6,0.4,2.4,0.3
			c2.4-0.2,4.4-1.9,4.9-4.3c0.1-0.6,0.2-1.2,0.1-1.8c-0.1-0.5-0.2-1-0.3-1.4c-0.4-1-0.7-2-1.1-3c0-0.1-0.1-0.2-0.1-0.3
			c0-0.3,0.2-0.6,0.5-0.7c0.3-0.1,0.5,0.1,0.6,0.4c0.3,0.8,0.6,1.6,0.9,2.5c0.2,0.7,0.5,1.3,0.6,2c0.3,1.4,0.1,2.7-0.5,4
			c-0.8,1.6-2,2.8-3.6,3.5c-0.5,0.2-1.1,0.3-1.7,0.4c-0.4,0-0.8,0.1-1.1,0.1c-1.6,0-2.9-0.6-4.1-1.6c-0.5-0.4-0.9-0.9-1.2-1.4
			c-0.1-0.2-0.3-0.3-0.5-0.4c-0.7-0.2-1.2-0.6-1.6-1.2c-0.8-1.3-0.2-3.3,1.6-3.8c0.4-0.1,0.8-0.1,1.3,0c0.2,0,0.4,0,0.5-0.1
			c0.4-0.3,0.6-0.8,0.5-1.3c0-0.2-0.1-0.3-0.1-0.5C63,15.3,63,15.3,63,15.2z"/>
		<path class="st4" d="M55.6,17c-0.5,0-1,0-1.6,0c-0.2,0-0.3,0-0.4-0.1c-0.4-0.1-0.6-0.4-0.5-0.7c0-0.4,0.2-0.6,0.6-0.7
			c0.1,0,0.2,0,0.3,0c1.1,0,2.3,0,3.4,0c0.2,0,0.3,0,0.4,0.1c0.3,0.2,0.4,0.4,0.4,0.7c0,0.3-0.2,0.5-0.4,0.6
			c-0.2,0.1-0.3,0.1-0.5,0.1C56.7,17,56.1,17,55.6,17L55.6,17z"/>
		<path class="st4" d="M78.7,15.4c0.6,0,1.1,0,1.7,0c0.1,0,0.2,0,0.3,0c0.5,0.1,0.6,0.5,0.6,0.9c-0.1,0.3-0.3,0.6-0.7,0.6
			c-0.3,0-0.6,0-0.9,0c-0.9,0-1.7,0-2.6,0c-0.2,0-0.4,0-0.5-0.1c-0.3-0.1-0.4-0.3-0.4-0.6c0-0.3,0.1-0.5,0.4-0.7
			c0.2-0.1,0.3-0.1,0.5-0.1C77.6,15.4,78.2,15.4,78.7,15.4z"/>
		<path class="st4" d="M60.3,10c-0.2,0-0.4-0.1-0.6-0.2c-0.1-0.1-0.2-0.2-0.4-0.3c-0.7-0.7-1.4-1.4-2.1-2.1C57.2,7.3,57.1,7.1,57,7
			c-0.1-0.3-0.1-0.6,0.2-0.8C57.4,6,57.7,5.9,57.9,6c0.1,0,0.3,0.1,0.4,0.2c0.2,0.2,0.4,0.4,0.6,0.6c0.6,0.6,1.2,1.2,1.7,1.7
			c0.1,0.1,0.2,0.2,0.3,0.4c0.2,0.4,0,0.9-0.5,1.1C60.4,10,60.4,10,60.3,10z"/>
		<path class="st4" d="M77.4,6.8c0,0.2-0.1,0.4-0.2,0.5c-0.1,0.1-0.2,0.2-0.3,0.3c-0.7,0.7-1.4,1.4-2.1,2.1
			c-0.1,0.1-0.2,0.2-0.4,0.3c-0.6,0.3-1-0.2-1.1-0.6c0-0.2,0-0.3,0.1-0.4c0.1-0.1,0.1-0.2,0.2-0.3c0.8-0.8,1.6-1.6,2.3-2.3
			c0.1-0.1,0.2-0.2,0.3-0.3C76.9,5.8,77.4,6.3,77.4,6.8z"/>
		<path class="st4" d="M67.9,4.6c0,0.6,0,1.1,0,1.7c0,0.2,0,0.3-0.1,0.4c-0.1,0.3-0.4,0.4-0.7,0.4c-0.3,0-0.5-0.2-0.7-0.5
			c-0.1-0.2-0.1-0.3-0.1-0.5c0-1.1,0-2.1,0-3.2c0-0.1,0-0.3,0-0.4C66.5,2.2,66.8,2,67.2,2c0.4,0,0.7,0.3,0.7,0.7c0,0.3,0,0.7,0,1
			C67.9,4,67.9,4.3,67.9,4.6z"/>
		<path class="st4" d="M68.2,22.3c-0.5,0-1-0.1-1.5-0.3c-0.2-0.1-0.5-0.2-0.7-0.4c-0.1-0.1-0.2-0.2-0.2-0.3
			c-0.1-0.2-0.1-0.4,0.1-0.6c0.2-0.2,0.4-0.3,0.6-0.2c0.1,0,0.2,0.1,0.3,0.2c0.4,0.3,0.9,0.5,1.4,0.4c0.2,0,0.5-0.1,0.7-0.1
			c0.2,0,0.3,0,0.5,0c0.2,0.1,0.4,0.2,0.4,0.5c0,0.2-0.1,0.4-0.3,0.6c-0.1,0-0.2,0.1-0.2,0.1c-0.3,0.1-0.6,0.1-1,0.2
			C68.3,22.4,68.3,22.3,68.2,22.3z"/>
		<path class="st4" d="M70.5,16.4c0,0.3-0.2,0.5-0.4,0.6c-0.3,0.1-0.5,0-0.7-0.2c0,0-0.1-0.1-0.1-0.1c-0.1-0.3-0.3-0.6-0.3-0.9
			c0-0.1,0-0.2,0-0.3c0.1-0.3,0.2-0.4,0.5-0.5c0,0,0.1,0,0.1,0c0.1,0,0.1,0,0.2,0.1c0.2,0.2,0.4,0.4,0.5,0.6
			c0.1,0.2,0.2,0.5,0.2,0.7C70.5,16.3,70.5,16.3,70.5,16.4z"/>
		<path class="st4" d="M67.1,15.7c0.2,0,0.3,0.1,0.4,0.3c0.1,0.1,0.1,0.3,0.2,0.4c0.1,0.3,0.2,0.6,0.3,0.9c0,0.1,0,0.1,0,0.1
			c-0.1,0.1-0.2,0.2-0.2,0.3c-0.1,0.1-0.1,0.1-0.2,0.2c-0.3,0.1-0.5,0.1-0.7-0.2c-0.2-0.4-0.4-0.8-0.4-1.2c0-0.1,0-0.2,0-0.2
			c0.1-0.2,0.2-0.3,0.3-0.4C66.8,15.8,66.9,15.7,67.1,15.7z"/>
	</g>
</g>
</svg>
